# xmcd CD database file
#
# Track frame offsets:
#	150
#	14266
#	33655
#	48966
#	63837
#	83255
#	100321
#	124441
#	147229
#	163902
#	182111
#	196267
#
# Disc length: 2869 seconds
#
# Revision: 0
# Processed by: cddbd v1.5.2PL0 Copyright (c) Steve Scherf et al.
# Submitted via: CDex 1.51
#
DISCID=9f0b330c
DTITLE=Kerry Kennedy - Mad About You - 2010
DYEAR=2010
DGENRE=Country
TTITLE0=Mad About You 
TTITLE1=Move A Little Closer
TTITLE2=Can't Get Enough 
TTITLE3=Mum My Dad and Me 
TTITLE4=Missing You 
TTITLE5=Life Sux
TTITLE6=Stepp'in Out In Wolongong
TTITLE7=Stupid World
TTITLE8=One of Them Days
TTITLE9=Hey There You 
TTITLE10=Gypsy Rose
TTITLE11=When I See You Smile 
EXTD=YEAR: 2010
EXTT0=
EXTT1=
EXTT2=
EXTT3=
EXTT4=
EXTT5=
EXTT6=
EXTT7=
EXTT8=
EXTT9=
EXTT10=
EXTT11=
PLAYORDER=
